<?xml version="1.0" encoding="UTF-8"?>
<svg width="48px" height="43px" viewBox="0 0 48 43" version="1.1" xmlns="http://www.w3.org/2000/svg" xmlns:xlink="http://www.w3.org/1999/xlink">
    <!-- Generator: Sketch 43.2 (39069) - http://www.bohemiancoding.com/sketch -->
    <title>nzqa</title>
    <desc>Created with Sketch.</desc>
    <defs>
        <path d="M0,2.00789566 C0,0.898965508 0.898692705,0 2.00201969,0 L40.0931773,0 C41.1988622,0 42.095197,0.892871988 42.095197,2.00789566 L42.095197,34.8514721 C42.095197,35.9604022 41.1965043,36.8593677 40.0931773,36.8593677 L2.00201969,36.8593677 C0.896334745,36.8593677 0,35.9664957 0,34.8514721 L0,2.00789566 Z" id="path-1"></path>
    </defs>
    <g id="Page-1" stroke="none" stroke-width="1" fill="none" fill-rule="evenodd">
        <g id="Group-12" transform="translate(-288.000000, -49.000000)">
            <g id="nzqa" transform="translate(291.040960, 52.490566)">
                <g id="Group-18-Copy">
                    <g id="Group-12-Copy-6">
                        <g id="Combined-Shape">
                            <mask id="mask-2" fill="white">
                                <use xlink:href="#path-1"></use>
                            </mask>
                            <path stroke="#143953" stroke-width="2.5" d="M-1.25,2.00789566 L-1.25,34.8514721 C-1.25,36.6545144 0.203643035,38.1093677 2.00201969,38.1093677 L40.0931773,38.1093677 C41.8882678,38.1093677 43.345197,36.6493502 43.345197,34.8514721 L43.345197,2.00789566 C43.345197,0.204853361 41.8915539,-1.25 40.0931773,-1.25 L2.00201969,-1.25 C0.206929178,-1.25 -1.25,0.2100175 -1.25,2.00789566 Z"></path>
                        </g>
                    </g>
                    <rect id="Rectangle-path" fill="#143953" fill-rule="nonzero" x="25.1765537" y="17.1603774" width="7.12999992" height="2.01886792"></rect>
                    <rect id="Rectangle-path" fill="#143953" fill-rule="nonzero" x="25.1765537" y="24.2264151" width="7.12999992" height="2.01886792"></rect>
                    <rect id="Rectangle-path" fill="#143953" fill-rule="nonzero" x="25.1765537" y="10.0943396" width="11.5092817" height="2.01886792"></rect>
                </g>
                <g id="Group-8" transform="translate(5.620812, 6.573058)" stroke="#143953" stroke-width="2.5">
                    <ellipse id="Oval-3" cx="7.02601498" cy="7.06062038" rx="7.02601498" ry="7.06062038"></ellipse>
                    <polyline id="Path-2" points="3.23371048 12.757626 2.29690848 22.7216105 7.29640028 19.7818485 12.2958921 22.7216105 11.3590901 11.9774714"></polyline>
                </g>
            </g>
        </g>
    </g>
</svg>