<?xml version="1.0" encoding="UTF-8"?>
<svg width="31px" height="44px" viewBox="0 0 31 44" version="1.1" xmlns="http://www.w3.org/2000/svg" xmlns:xlink="http://www.w3.org/1999/xlink">
    <!-- Generator: Sketch 43.2 (39069) - http://www.bohemiancoding.com/sketch -->
    <title>immigration</title>
    <desc>Created with Sketch.</desc>
    <defs></defs>
    <g id="Page-1" stroke="none" stroke-width="1" fill="none" fill-rule="evenodd">
        <g id="Group-12" transform="translate(-487.000000, -49.000000)" fill-rule="nonzero" fill="#143953">
            <g id="immigration" transform="translate(487.418079, 49.462264)">
                <g id="Group">
                    <path d="M24.4018905,43.2008755 L5.80997392,43.2008755 C2.60121393,43.2008755 0,40.5774361 0,37.3412597 L0,10.5745347 C0,7.33835821 2.60121393,4.71491885 5.80997392,4.71491885 L24.4018905,4.71491885 C27.6106505,4.71491885 30.2118644,7.33835821 30.2118644,10.5745347 L30.2118644,37.3412597 C30.2118644,40.5774361 27.6106505,43.2008755 24.4018905,43.2008755 Z M5.80997392,7.05876517 C3.88471793,7.05876517 2.32398957,8.63282879 2.32398957,10.5745347 L2.32398957,37.3412597 C2.32398957,39.2829655 3.88471793,40.8570291 5.80997392,40.8570291 L24.4018905,40.8570291 C26.3271465,40.8570291 27.8878748,39.2829655 27.8878748,37.3412597 L27.8878748,10.5745347 C27.8878748,8.63282879 26.3271465,7.05876517 24.4018905,7.05876517 L5.80997392,7.05876517 Z" id="Shape"></path>
                    <path d="M1.16199478,13.4105887 C0.520242786,13.4105887 0,12.8859008 0,12.2386655 L0,8.23068833 C0.00209623911,5.97946805 1.27288094,3.92520402 3.27682529,2.93359565 C4.15425718,2.55564592 5.08989877,2.33361393 6.04237288,2.27731868 L6.66985007,2.27731868 L10.2255541,1.6913571 L21.845502,0.00378774291 L21.845502,0.00378774291 C23.4284786,-0.053494516 24.9664884,0.5409443 26.1060925,1.65050052 C27.2456965,2.76005675 27.8888934,4.289313 27.8878748,5.88684201 C27.8878748,6.5340773 27.3676321,7.05876517 26.7258801,7.05876517 C26.0841281,7.05876517 25.5638853,6.5340773 25.5638853,5.88684201 C25.5638853,3.94513614 24.0031569,2.37107253 22.0779009,2.37107253 L10.4579531,4.03520342 L6.97196871,4.52741115 L6.27477184,4.52741115 C5.58113394,4.56282462 4.89802412,4.71328419 4.25290091,4.97274195 C3.03824769,5.58995941 2.28661656,6.85947029 2.32398957,8.23068833 L2.32398957,12.2386655 C2.32398957,12.8859008 1.80374678,13.4105887 1.16199478,13.4105887 Z" id="Shape"></path>
                </g>
                <path d="M15.0418261,35.9586196 C10.7864156,35.9586196 7.3367239,32.4572454 7.3367239,28.1380814 C7.3367239,23.8189174 10.7864156,20.3175432 15.0418261,20.3175432 C19.2972365,20.3175432 22.7469282,23.8189174 22.7469282,28.1380814 C22.7469282,30.2122171 21.935143,32.2014016 20.490156,33.668037 C19.0451691,35.1346724 17.0853462,35.9586196 15.0418261,35.9586196 Z M15.0418261,22.6177015 C12.0380069,22.6177015 9.60293041,25.0892597 9.60293041,28.1380814 C9.60293041,31.186903 12.0380069,33.6584613 15.0418261,33.6584613 C18.0456452,33.6584613 20.4807217,31.186903 20.4807217,28.1380814 C20.4807217,25.0892597 18.0456452,22.6177015 15.0418261,22.6177015 L15.0418261,22.6177015 Z" id="Shape"></path>
                <path d="M14.9650844,35.9732009 C14.712273,35.9732009 14.5073288,35.4926873 14.5073288,34.8999438 L14.5073288,22.4501605 C14.5073288,21.8574169 14.712273,21.3769033 14.9650844,21.3769033 C15.2178957,21.3769033 15.4228399,21.8574169 15.4228399,22.4501605 L15.4228399,34.8999438 C15.4228399,35.4926873 15.2178957,35.9732009 14.9650844,35.9732009 Z" id="Shape"></path>
                <path d="M20.4863202,27.5955764 L10.6410553,27.5955764 C10.0576444,27.5955764 9.58469638,27.1155428 9.58469638,26.5233914 C9.58469638,25.93124 10.0576444,25.4512064 10.6410553,25.4512064 L20.5074474,25.4512064 C21.0908583,25.4512064 21.5638063,25.93124 21.5638063,26.5233914 C21.5638063,27.1155428 21.0908583,27.5955764 20.5074474,27.5955764 L20.4863202,27.5955764 Z" id="Shape" opacity="0.986356431"></path>
                <path d="M20.4863202,31.0210217 L10.6410553,31.0210217 C10.0576444,31.0210217 9.58469638,30.5409881 9.58469638,29.9488367 C9.58469638,29.3566852 10.0576444,28.8766517 10.6410553,28.8766517 L20.5074474,28.8766517 C21.0908583,28.8766517 21.5638063,29.3566852 21.5638063,29.9488367 C21.5638063,30.5409881 21.0908583,31.0210217 20.5074474,31.0210217 L20.4863202,31.0210217 Z" id="Shape" opacity="0.986356431"></path>
                <path d="M21.8120503,16.9816059 L8.35403824,16.9816059 C7.73465034,16.9816059 7.23253724,16.5015723 7.23253724,15.9094209 C7.23253724,15.3172695 7.73465034,14.8372359 8.35403824,14.8372359 L21.8120503,14.8372359 C22.4314382,14.8372359 22.9335513,15.3172695 22.9335513,15.9094209 C22.9335513,16.5015723 22.4314382,16.9816059 21.8120503,16.9816059 Z" id="Shape"></path>
            </g>
        </g>
    </g>
</svg>