<?xml version="1.0" encoding="UTF-8"?>
<svg width="105px" height="119px" viewBox="0 0 105 119" version="1.1" xmlns="http://www.w3.org/2000/svg" xmlns:xlink="http://www.w3.org/1999/xlink">
    <!-- Generator: Sketch 43.2 (39069) - http://www.bohemiancoding.com/sketch -->
    <title>kuaka</title>
    <desc>Created with Sketch.</desc>
    <defs></defs>
    <g id="Page-1" stroke="none" stroke-width="1" fill="none" fill-rule="evenodd">
        <g id="kuaka" fill="#FFFFFF">
            <path d="M6.4782166,118.540577 C6.27371324,118.540577 6.03861013,118.445434 5.75866776,118.248462 C5.44327815,118.047235 5.28846154,117.846919 5.28846154,117.637484 C5.28846154,117.481244 5.4711512,117.369991 5.88106681,117.277585 C6.3185525,117.166028 6.9099459,116.93258 7.63737189,116.584535 C9.42003519,115.777193 10.8718575,114.514201 11.9528471,112.831124 C12.1652276,112.527459 12.3833645,112.147801 12.6027133,111.699143 C12.4282038,111.651116 12.0379811,111.604912 11.1830056,111.604912 C10.7891473,111.604912 10.1892708,111.630446 9.40094821,111.681209 C9.11403758,112.060258 8.7350247,112.482775 8.27269564,112.938121 C7.6543381,113.549403 7.20897524,113.846381 6.9117637,113.846381 C6.72452952,113.846381 6.51457275,113.759142 6.27007763,113.579192 C5.98619668,113.373709 5.85379969,113.204702 5.85379969,113.048766 C5.85379969,112.973078 5.8953063,112.895869 6.4158052,112.654822 C7.09899788,112.351157 7.68039334,112.000072 8.14514614,111.6116 C8.40206295,111.405205 8.64837587,111.131936 8.87893447,110.797874 C9.09949512,110.496945 9.3188439,110.201791 9.53849565,109.9115 C9.71118737,109.650391 9.88054644,109.521508 10.0529352,109.521508 C10.290765,109.521508 10.4271006,109.644007 10.4271006,109.857698 C10.4271006,109.948889 10.3743842,110.142821 9.97840508,110.827055 L11.7877296,110.827055 C12.3058047,110.827055 12.7305657,110.80061 13.049288,110.748631 C13.1641129,110.739512 13.2580329,110.734953 13.3389254,110.734953 C13.7330866,110.734953 13.7921654,110.986335 13.7921654,111.1368 C13.7921654,111.400949 13.5085874,112.010407 12.9259801,113.000131 C11.7589476,114.980794 10.2898561,116.521309 8.55960627,117.579122 C7.5022482,118.226272 6.82117629,118.540577 6.4782166,118.540577" id="Fill-1"></path>
            <path d="M21.2788059,113.821759 C21.0861183,113.810513 20.975535,113.702604 20.975535,113.525086 L20.975535,113.493777 L21.7711288,112.55968 C22.2934455,111.907058 22.45826,111.578771 22.4924954,111.414324 C22.3107146,111.378455 21.8499004,111.342587 20.7319488,111.342587 C19.5164414,111.342587 18.3278982,111.452928 17.1993427,111.670874 C16.2380255,111.828026 16.0586685,111.860854 16.0365518,111.866326 L16.0162529,111.784254 L16.0135262,111.784558 L16.0135262,111.869974 C15.8393197,111.869974 15.5472586,111.797325 15.5472586,111.309758 C15.5472586,111.057464 15.6311807,110.850157 15.7969042,110.693917 C15.9217269,110.581144 16.365575,110.433415 18.7865917,110.433415 L20.2590158,110.433415 C21.2263924,110.433415 22.1265101,110.468068 22.9342226,110.536765 C22.99724,110.5088 23.1302429,110.485698 23.478959,110.485698 C23.6183242,110.485698 23.7540539,110.530989 23.8825123,110.619748 C24.0094558,110.704556 24.0767147,110.834351 24.0767147,110.993327 C24.0767147,111.33742 23.7158799,111.853255 22.9726996,112.571534 C22.2292163,113.29954 21.6844799,113.707771 21.3078908,113.818416 L21.2936513,113.822671 L21.2788059,113.821759 Z M15.5793732,118.29193 C15.3991073,118.29193 15.1576418,118.160007 14.8410403,117.889475 C14.5286804,117.614383 14.3774994,117.386406 14.3774994,117.191257 C14.3774994,117.06511 14.5253478,116.986078 14.9058755,116.909478 C15.344573,116.831966 15.8635571,116.652624 16.450103,116.375404 C17.1105731,116.074171 17.6931804,115.616089 18.1818677,115.01423 C18.7108497,114.354617 19.00079,113.674334 19.0432055,112.992532 C19.0628984,112.511044 19.2152913,112.266349 19.4964455,112.266349 C19.7151884,112.266349 19.9757408,112.381858 19.9757408,112.931738 C19.9757408,113.47797 19.7654811,114.200505 19.350112,115.078368 C18.9689784,115.878415 18.3548624,116.611588 17.5244273,117.258739 C16.6703607,117.953916 16.0338251,118.29193 15.5793732,118.29193 L15.5793732,118.29193 Z" id="Fill-3"></path>
            <path d="M30.2575634,118.356067 C29.9797418,118.356067 29.6985876,118.267308 29.4234927,118.092526 C29.1614254,117.917136 29.0290285,117.693111 29.0290285,117.42653 C29.0290285,117.224998 29.0659906,117.106146 29.1453681,117.052344 C29.2083855,117.014651 29.3098797,116.998541 29.4686349,116.998541 C29.5289255,116.998541 29.5943666,117.007964 29.6631403,117.028026 C29.7470625,117.046568 29.7973551,117.051128 29.8240163,117.051128 C30.3269431,117.051128 30.70535,116.884857 30.9801419,116.542283 C31.2358469,116.259592 31.5127595,115.592076 31.8054266,114.555237 C32.0980936,113.573721 32.2513954,112.856961 32.2616963,112.422285 C32.2477597,112.41803 32.2280668,112.412862 32.1992849,112.407087 C32.0144744,112.346293 31.6472773,112.316504 31.0989054,112.316504 C30.8362322,112.316504 30.3766298,112.324711 29.7204013,112.34143 C29.2002053,114.409636 28.3570456,115.999394 27.2142506,117.067238 C26.5877129,117.65937 26.1556806,117.947229 25.8942193,117.947229 C25.7009258,117.947229 25.4579455,117.852694 25.1513419,117.657242 C24.8338315,117.46331 24.678409,117.280016 24.678409,117.097027 C24.678409,116.971184 24.8214099,116.868138 25.1561894,116.75263 C25.7181949,116.53894 26.3362495,116.093321 26.9903573,115.427932 C27.7911015,114.624846 28.381889,113.608069 28.7478742,112.404959 C28.4824743,112.427149 28.1113386,112.472744 27.6411324,112.539618 C26.8349347,112.672756 26.7834302,112.672756 26.7616165,112.672756 C26.5010641,112.672756 26.189916,112.55968 26.189916,112.020134 C26.189916,111.777871 26.5213629,111.530744 28.9644963,111.52588 C29.052054,111.053208 29.1044675,110.654401 29.1211307,110.340705 C29.1599106,109.7966 29.3295726,109.521508 29.6267842,109.521508 C29.9445975,109.521508 30.11941,109.687475 30.11941,109.98962 C30.11941,110.303317 30.0503334,110.820064 29.9143008,111.526184 C30.157584,111.527096 30.5005437,111.531656 30.9428769,111.538951 C31.4415621,111.54807 31.8175453,111.552022 32.0714324,111.552022 C32.1471744,111.552022 32.2504865,111.523449 32.3792478,111.467214 L32.3956081,111.459919 L32.4131802,111.459919 C32.4298435,111.459919 32.4743798,111.455664 32.5483039,111.447152 L32.7022116,111.446848 C33.1748416,111.446848 33.2739121,111.672394 33.2739121,111.861766 C33.2739121,112.473352 33.0521396,113.599254 32.613745,115.207555 C32.0438623,117.296735 31.2512982,118.356067 30.2575634,118.356067" id="Fill-5"></path>
            <path d="M39.1769392,111.577859 C38.9272937,111.577859 38.7897462,111.440161 38.7897462,111.189387 C38.7897462,110.92159 38.9454718,110.773861 39.2296557,110.773861 L40.0476691,110.933749 C40.2867108,110.949859 40.3136749,111.11765 40.3136749,111.189387 C40.3136749,111.377544 40.2109688,111.485757 40.0310058,111.485757 L39.1817867,111.577859 L39.1769392,111.577859 Z M36.6014089,111.735619 L35.5498072,111.576947 C35.2619877,111.535911 35.2013941,111.400949 35.2013941,111.294864 C35.2013941,111.145311 35.3162189,111.041658 35.542536,110.987551 C35.542536,110.987551 36.6065593,110.88025 36.6068623,110.88025 C36.864385,110.88025 37.0013266,111.027675 37.0013266,111.294864 C37.0013266,111.678777 36.7589522,111.736227 36.6138306,111.736227 L36.6014089,111.735619 Z M42.0530138,113.648497 L40.8823457,113.207742 C40.7029887,113.175825 40.4721271,113.040559 40.4721271,112.600107 C40.4721271,112.422893 40.5690769,112.211331 41.0301941,112.211331 L41.0586731,112.211331 L42.1854108,113.059405 C42.3847637,113.144516 42.4299059,113.294981 42.4299059,113.405018 C42.4299059,113.495905 42.3829459,113.648497 42.0684652,113.648497 L42.0530138,113.648497 Z M45.2744718,113.648497 L43.9995827,113.20835 C43.8062892,113.176433 43.5605822,113.041167 43.5605822,112.600107 C43.5605822,112.422893 43.6599557,112.211331 44.1319797,112.211331 L44.1586409,112.211331 L45.376572,113.057277 C45.5886495,113.142996 45.6365185,113.294373 45.6365185,113.405018 C45.6365185,113.495905 45.5913762,113.648497 45.2887113,113.648497 L45.2744718,113.648497 Z M39.9788954,114.333947 C39.9240582,114.333947 39.8567993,114.305678 39.7607584,114.240629 C39.3705358,113.927845 39.0833222,113.74212 38.9015414,113.684061 C38.6776481,113.598342 38.5658529,113.483138 38.5658529,113.338752 C38.5658529,113.174001 38.6318999,112.897389 39.0718094,112.897389 C39.113013,112.897389 39.1642146,112.897389 39.765,113.32173 C40.2979206,113.707467 40.3663913,113.878602 40.3663913,113.984991 C40.3663913,114.115698 40.3160987,114.333947 39.9788954,114.333947 L39.9788954,114.333947 Z M37.9281054,114.70327 C37.6542224,114.70327 37.5148572,114.421795 37.5148572,113.866139 C37.5206136,113.660656 37.5290967,113.4649 37.5397006,113.278263 C37.2761185,113.547579 36.9958731,113.794402 36.704418,114.013564 C36.3660028,114.264035 35.9703267,114.476205 35.5270846,114.645212 C35.4171072,114.685336 35.3410623,114.70327 35.2865281,114.70327 C35.0847514,114.70327 34.8757036,114.58685 34.6466598,114.347322 C34.4669998,114.186218 34.3733827,114.022683 34.3733827,113.866139 C34.3921667,113.754582 34.4633642,113.636642 34.7030118,113.622964 C35.0299142,113.605333 35.2710767,113.57524 35.4213488,113.533293 C35.8027854,113.46338 36.1693766,113.32477 36.5183957,113.119591 C36.7392593,112.995875 36.9419448,112.856353 37.1231197,112.703153 C36.5962584,112.716528 36.1924022,112.749964 35.920337,112.802855 C35.6494837,112.898605 35.5561695,112.910156 35.5098154,112.910156 C35.1180779,112.897085 35.0187044,112.659077 35.0044649,112.461801 C35.0144629,112.305865 35.0892959,112.163304 35.2262375,112.025606 C35.3789333,111.934415 35.5522309,111.895203 35.759461,111.895203 L37.5672706,111.895203 L37.5672706,111.769664 C37.5672706,111.424051 37.5496985,111.035882 37.5151602,110.616405 C37.5148572,110.597559 37.5154631,110.580232 37.5160691,110.562906 C37.3600406,110.583272 37.2061329,110.600902 37.0558608,110.615189 C36.5311203,110.668687 36.1969467,110.694829 36.0357678,110.694829 C35.8046032,110.694829 35.5958583,110.611845 35.4134716,110.44831 C35.2722886,110.317603 35.2013941,110.176865 35.2013941,110.028832 C35.2013941,109.940073 35.2407799,109.788089 35.504665,109.771978 C36.525061,109.763163 37.3764008,109.732462 38.0395976,109.679876 C38.7109746,109.636104 39.2838869,109.583214 39.7440952,109.522116 L39.9788954,109.521508 C40.2812574,109.521508 40.3136749,109.719392 40.3136749,109.804503 C40.3136749,110.07382 40.1749156,110.176561 40.058273,110.215469 C39.4483985,110.309092 38.9030562,110.385388 38.423458,110.444966 C38.4304263,110.496945 38.4340619,110.551659 38.4340619,110.60911 C38.3901315,111.033146 38.3683178,111.420403 38.3683178,111.769664 L38.376195,111.895203 L40.2285409,111.895203 C40.369724,111.895203 40.4581906,111.976363 40.4709153,112.118012 C40.4712182,112.296442 40.4151692,112.444779 40.3045859,112.565759 C40.1791572,112.682179 40.0137367,112.738109 39.8077185,112.738109 C39.6983471,112.738109 39.4399154,112.725039 39.0399977,112.698897 L38.3977057,112.698897 L38.4340619,113.863707 C38.4340619,114.421795 38.2637939,114.70327 37.9281054,114.70327 L37.9281054,114.70327 Z M37.5512133,116.431335 L37.5175839,115.545569 C37.2064358,115.537969 36.8658999,115.534322 36.4956731,115.534322 C36.4165984,115.534322 36.3705473,115.556815 36.3705473,115.672932 C36.3705473,115.925834 36.3669117,116.178432 36.3599434,116.431335 L37.5512133,116.431335 Z M39.4208284,116.431335 L39.4208284,115.620041 C39.4208284,115.595723 39.415678,115.58782 39.415678,115.58782 C39.122405,115.578701 38.7991382,115.570494 38.4319411,115.562287 L38.4104304,116.431335 L39.4208284,116.431335 Z M36.3287377,117.219527 C36.3187398,117.485804 36.3020766,117.748433 36.2784451,118.001639 C36.278748,118.114108 36.3232843,118.158487 36.4432596,118.158487 C36.7668294,118.13417 37.1503868,118.120795 37.5784805,118.119275 L37.5560608,117.159037 C37.082219,117.175755 36.6701826,117.195817 36.3287377,117.219527 L36.3287377,117.219527 Z M38.3834662,118.121403 C38.6737095,118.130522 38.9745567,118.142985 39.2866136,118.158487 C39.4102246,118.158487 39.4208284,118.105901 39.4208284,118.046323 L39.4208284,117.129856 L38.4061888,117.129856 L38.3834662,118.121403 Z M35.759461,118.96279 C35.6146423,118.96279 35.372268,118.905036 35.372268,118.521427 C35.4422536,117.885827 35.4773979,117.334123 35.4773979,116.872698 C35.4773979,116.419784 35.4422536,115.859265 35.372571,115.207251 C35.372268,114.904802 35.5282965,114.743394 35.8124804,114.743394 C35.9373032,114.743394 36.0575815,114.748257 36.1736182,114.757073 C36.2808688,114.774703 36.4444715,114.783214 36.66685,114.783214 L38.243798,114.783214 C38.5931201,114.783214 39.0193959,114.800844 39.5117188,114.836105 C39.604124,114.836105 39.7398537,114.818474 39.9095157,114.784734 L39.9140602,114.784734 C40.2115747,114.784734 40.3663913,114.951005 40.3663913,115.251022 C40.3663913,115.265917 40.3642706,115.282939 40.3367005,115.379601 C40.303374,115.480519 40.2782277,115.681443 40.2609585,115.980852 C40.2349033,116.36203 40.2215727,116.781811 40.2215727,117.22895 C40.2215727,117.525928 40.2394478,117.941149 40.2739861,118.46276 C40.2739861,118.753355 40.1273496,118.909899 39.8607379,118.909899 C39.0784747,118.848801 38.3774069,118.817492 37.7705621,118.817492 C37.0419243,118.817492 36.5768685,118.830563 36.3887254,118.856704 C36.222699,118.874335 36.0175897,118.909291 35.7773361,118.960966 L35.76855,118.96279 L35.759461,118.96279 Z M41.5428158,118.96279 C41.3531579,118.96279 41.1738009,118.878894 41.0092893,118.713839 C40.8547756,118.577965 40.7741862,118.418685 40.7741862,118.244207 C40.7863049,118.09587 40.8696211,117.998904 41.0092893,117.963643 C41.6427952,117.614079 42.0496812,117.238677 42.1999532,116.854764 C42.325079,116.485137 42.401124,115.955015 42.4256644,115.281723 C41.9300088,115.616697 41.4585907,115.999394 41.0235288,116.420088 L40.9989884,116.444101 L40.96445,116.444101 C40.5360534,116.444101 40.4721271,116.183904 40.4721271,116.029183 C40.4721271,115.844978 40.5087863,115.696337 40.5814986,115.586604 C40.6069479,115.45529 40.6775394,115.357412 40.7923642,115.29449 C41.5185784,114.909361 42.0733127,114.6443 42.4435395,114.505082 C42.4523255,113.329937 42.4565671,112.149625 42.4565671,110.965057 C42.4565671,110.927669 42.3690094,110.910039 42.287511,110.905479 C41.8197285,110.905479 41.4428364,110.944387 41.1716801,111.020988 C41.0159546,111.094244 40.9486957,111.103059 40.9123395,111.103059 C40.6284586,111.103059 40.4721271,110.946515 40.4721271,110.661696 C40.4721271,110.455301 40.5660472,110.190848 41.0138338,110.103001 L41.6349181,110.101785 C41.9172842,110.101785 42.2005592,110.118807 42.4771689,110.152244 C42.7040919,110.056798 42.8646649,110.006035 42.9679769,109.996612 L42.9688859,109.996612 C43.3021506,109.996612 43.4815076,110.171698 43.4815076,110.490258 C43.4815076,110.636771 43.4596939,110.83587 43.4142487,111.098196 C43.3363859,111.462959 43.2973031,112.84997 43.2973031,115.224273 C43.2973031,116.321906 43.1309737,117.226518 42.8028594,117.912272 C42.3375007,118.622344 41.9272821,118.96279 41.5428158,118.96279 L41.5428158,118.96279 Z M44.6579321,119.01568 C44.469486,119.01568 44.2858874,118.932393 44.1131957,118.767945 C43.9647414,118.629032 43.8893024,118.470664 43.8893024,118.297097 C43.8893024,118.152104 43.9680741,118.052402 44.1113779,118.01623 C44.8248674,117.65633 45.2753807,117.276369 45.43353,116.89276 C45.584105,116.503071 45.6731776,115.935561 45.6986269,115.206643 C45.1166255,115.561679 44.5743129,115.969909 44.0844138,116.421608 L44.0601763,116.444101 L44.0271528,116.444101 C43.5872434,116.444101 43.5211964,116.183904 43.5211964,116.029183 C43.5211964,115.834643 43.5557347,115.686002 43.6266292,115.573838 C43.647534,115.460761 43.7290324,115.357716 43.8571878,115.293274 C44.7106485,114.86103 45.3162814,114.592625 45.7040803,114.474077 C45.7210465,113.28799 45.7295296,112.107373 45.7295296,110.965057 C45.7295296,110.934964 45.6562114,110.911255 45.54684,110.905479 C45.0530022,110.905479 44.6627795,110.944387 44.3919262,111.020988 C44.2258998,111.093028 44.166821,111.103059 44.1319797,111.103059 C43.8314355,111.103059 43.6660151,110.946515 43.6660151,110.661696 C43.6660151,110.455301 43.7599351,110.190848 44.2077217,110.103001 L44.8548612,110.101785 C45.1547995,110.101785 45.4556466,110.118807 45.7486166,110.152548 C45.9667535,110.056798 46.1236909,110.006035 46.227003,109.996612 L46.2279119,109.996612 C46.5614796,109.996612 46.7408366,110.171698 46.7408366,110.490258 C46.7408366,110.637075 46.7135695,110.842862 46.6599441,111.101236 C46.5920793,111.470558 46.556935,112.867296 46.556935,115.251022 C46.556935,116.35899 46.367883,117.273329 45.9949295,117.968203 C45.5038185,118.675843 45.0678477,119.01568 44.6579321,119.01568 L44.6579321,119.01568 Z" id="Fill-7"></path>
            <path d="M49.29728,110.470196 C49.0367275,110.460165 48.881305,110.305444 48.8610061,110.035216 C48.8710041,109.875632 48.9482609,109.744317 49.0897469,109.631849 C49.2182053,109.55616 49.3787783,109.521508 49.5769194,109.521508 L52.1397251,109.521508 C52.3402898,109.521508 52.385735,109.624857 52.395127,109.686259 C52.3960359,109.878672 52.3351394,110.03552 52.21577,110.165922 C52.0942799,110.297845 51.9315861,110.364414 51.7322332,110.364414 C51.6667921,110.364414 51.5340922,110.351952 51.3141375,110.324594 C51.1032718,110.316691 50.8681687,110.311828 50.6148875,110.311828 C50.1346833,110.311828 49.7841494,110.341921 49.5732837,110.401499 C49.391503,110.462292 49.3315153,110.470196 49.3006126,110.470196 L49.29728,110.470196 Z M48.522288,112.10555 C48.1360039,112.092783 48.0287532,111.863894 48.0069395,111.673913 C48.0272384,111.500955 48.106919,111.359305 48.2438605,111.231942 C48.3947385,111.143183 48.5683391,111.103971 48.7746603,111.103971 L52.8889648,111.103971 C53.1370955,111.103971 53.1779962,111.259603 53.1840555,111.326477 C53.1843585,111.53044 53.1243708,111.700055 53.0059104,111.838361 C52.8529116,111.98305 52.6741605,112.052659 52.4684453,112.052659 C52.3633154,112.052659 52.1303331,112.017703 51.7555617,111.945662 C51.3913943,111.920736 50.9729956,111.907666 50.5230882,111.907666 C49.778393,111.907666 49.2357775,111.942926 48.9109958,112.011319 C48.6510494,112.094911 48.5680361,112.10555 48.5253177,112.10555 L48.522288,112.10555 Z M49.4054395,113.490129 C48.9773458,113.490129 48.9134196,113.229932 48.9134196,113.074907 C48.9134196,112.873376 49.0194584,112.633544 49.5239,112.633544 L51.8900795,112.633544 C52.2842408,112.633544 52.3430165,112.877023 52.3430165,113.022321 C52.3430165,113.157587 52.2842408,113.384652 51.8900795,113.384652 C50.836963,113.384652 50.0047101,113.419912 49.4157404,113.489825 L49.41059,113.490129 L49.4054395,113.490129 Z M49.4054395,114.848263 C48.9773458,114.848263 48.9134196,114.605088 48.9134196,114.459791 C48.9134196,114.25218 49.0194584,114.005053 49.5239,114.005053 L51.8900795,114.005053 C52.2842408,114.005053 52.3430165,114.256739 52.3430165,114.4069 C52.3430165,114.537607 52.2842408,114.756161 51.8900795,114.756161 C50.8384778,114.756161 50.0059219,114.786862 49.4145285,114.847959 L49.409984,114.848263 L49.4054395,114.848263 Z M50.733045,117.697366 C50.9193702,117.697366 51.1359923,117.7153 51.3765489,117.750865 C51.4762253,117.749953 51.4762253,117.704661 51.4762253,117.664233 L51.4762253,116.556266 C51.4762253,116.509455 51.4662274,116.4976 51.4659244,116.4976 C51.1005451,116.461732 50.590953,116.443797 49.9316948,116.443797 C49.8117195,116.443797 49.7668802,116.488785 49.7668802,116.609157 C49.7668802,116.965104 49.73113,117.30859 49.6599326,117.630189 C49.6620533,117.659978 49.6620533,117.749953 49.8789784,117.749953 C50.1158993,117.7153 50.4073544,117.697366 50.733045,117.697366 L50.733045,117.697366 Z M51.9291624,118.60593 C51.4874351,118.536321 51.0850937,118.501061 50.733045,118.501061 C50.1616475,118.501061 49.7935414,118.509876 49.6387248,118.527202 C49.5166287,118.536017 49.3615092,118.562158 49.1751839,118.604714 L49.1691245,118.604714 C48.853129,118.604714 48.6898293,118.438443 48.6898293,118.138729 C48.7686009,117.717428 48.8079867,117.354489 48.8079867,117.044136 C48.8079867,116.777859 48.7686009,116.441974 48.6913441,116.045598 C48.6898293,115.744364 48.8552497,115.587516 49.1560969,115.587516 C49.2851612,115.587516 49.4205879,115.606058 49.5590442,115.642839 C49.675081,115.675971 49.8574677,115.692994 50.1022657,115.692994 L50.9045248,115.692994 C51.0990302,115.692994 51.3241354,115.710928 51.573781,115.746492 C51.6819405,115.74558 51.8310007,115.71184 52.0042984,115.645574 L52.0188409,115.640103 L52.0342922,115.640103 C52.3351394,115.640103 52.5008628,115.820661 52.5008628,116.147731 C52.5008628,116.172657 52.4914708,116.200318 52.4654156,116.251993 C52.4378455,116.301844 52.4027012,116.406713 52.3820994,116.642897 C52.3563471,116.887288 52.3430165,117.159341 52.3430165,117.452975 C52.3430165,117.607087 52.3605887,117.820778 52.39543,118.08827 C52.3960359,118.426284 52.234554,118.606842 51.94219,118.606842 L51.9291624,118.60593 Z M54.9588416,110.639506 C54.9588416,111.316142 54.9546001,111.876053 54.9470259,112.319848 C54.97399,112.318024 55.0021661,112.317112 55.0315539,112.317112 L57.9033869,112.317112 C57.9042959,111.592146 57.9400461,111.030715 58.0097287,110.646498 C58.0085168,110.603334 57.9942773,110.589352 57.9358045,110.589352 C57.1217297,110.589352 56.1207237,110.60607 54.9588416,110.639506 L54.9588416,110.639506 Z M59.1979689,118.606842 C59.0122496,118.606842 58.847738,118.510788 58.7086757,118.321415 C58.1987807,117.642348 57.8015897,116.975135 57.5289186,116.33984 C57.232313,115.700593 56.8463318,114.686248 56.3833968,113.326898 C56.3470407,113.226588 56.3279537,113.147252 56.3261359,113.084634 C55.7765521,113.101961 55.3084666,113.12719 54.9336953,113.160019 L54.9315745,113.160019 C54.917638,114.852215 54.7422196,116.02584 54.4098638,116.649584 C54.0420607,117.424098 53.6772873,117.802235 53.2961537,117.802235 C53.0631713,117.802235 52.8210999,117.673657 52.5775137,117.419842 C52.4460256,117.238373 52.3833113,117.079397 52.3833113,116.938659 C52.3833113,116.783939 52.4672334,116.679981 52.6199292,116.644417 C53.0928622,116.585751 53.4679365,116.21734 53.7436373,115.547696 C53.9572297,115.058306 54.0650863,114.062503 54.0650863,112.587037 C54.0650863,111.827114 54.029942,111.017644 53.9605623,110.180817 C53.9602594,109.880495 54.1162878,109.719088 54.4001688,109.719088 C54.5443815,109.719088 54.6598123,109.750093 54.7443404,109.81119 C54.813417,109.785049 54.8734047,109.771978 54.9261211,109.771978 L57.9376223,109.83794 C58.1906005,109.793864 58.3672308,109.771978 58.4617568,109.771978 C58.9665014,109.771978 59.0725402,110.047678 59.0725402,110.279303 C58.9565035,110.642242 58.8737932,111.005181 58.8222887,111.385447 C58.8141085,111.582419 58.809564,111.982746 58.809564,112.600411 C58.809564,112.927482 58.6441435,113.107736 58.3432964,113.107736 C58.2460437,113.107736 58.167575,113.09193 58.1051636,113.060013 C58.0712312,113.065484 58.0327543,113.06822 57.9885209,113.06822 L57.241402,113.06822 C57.5643658,113.980127 57.8627892,114.695975 58.1290981,115.19722 C58.4060107,115.769898 58.7586654,116.276918 59.1794879,116.707643 C59.4979072,117.078485 59.810873,117.337467 60.1144469,117.481244 C60.1820087,117.488235 60.3344016,117.547509 60.3344016,117.783085 C60.3131939,117.977322 60.1729197,118.160919 59.9047931,118.353332 C59.6815057,118.521123 59.44307,118.606842 59.1979689,118.606842 L59.1979689,118.606842 Z" id="Fill-9"></path>
            <path d="M64.931031,118.515043 C64.7068348,118.515043 64.4365874,118.427196 64.1275601,118.25363 C63.7712698,118.060609 63.5976692,117.854822 63.5976692,117.625325 C63.5976692,117.504954 63.7291573,117.411331 64.4038668,117.290655 C64.9143678,117.196729 65.4121441,116.983951 65.8820474,116.658096 C66.8906276,115.96687 67.4599043,114.742482 67.5753351,113.018673 C67.1299723,112.964262 66.7273279,112.936601 66.377097,112.936601 C66.0486797,112.936601 65.6178593,112.973078 65.0952396,113.04451 L65.0952396,115.106637 C65.0276778,115.442219 64.8404436,115.508484 64.695019,115.508484 C64.3344872,115.508484 64.1366491,115.314248 64.1366491,114.96134 L64.1366491,113.187376 C63.6870447,113.256377 63.0341488,113.40593 62.1931099,113.632691 C61.8474234,113.766741 61.6780644,113.83331 61.5995957,113.864923 L61.6074728,113.899576 L61.5011311,113.899576 C61.200284,113.899576 61.0345605,113.719322 61.0345605,113.391947 C61.0345605,113.079163 61.1766525,112.837203 61.4578067,112.672148 C61.7316897,112.525635 62.607267,112.390977 64.1366491,112.258446 L64.1366491,110.477795 C64.1366491,110.124887 64.3114616,109.930954 64.628972,109.930954 C64.8880096,109.930954 65.044947,110.133702 65.0946337,110.533117 L65.0952396,112.182758 C65.6105881,112.167863 66.4440529,112.15996 67.5759411,112.159656 C67.5698817,112.004328 67.566852,111.830762 67.566852,111.638349 L67.566852,110.280215 C67.566852,110.110296 67.6359287,109.825477 68.0988637,109.825477 C68.2461061,109.825477 68.4972665,109.883535 68.5257455,110.274135 C68.5602839,110.516399 68.5736144,110.853805 68.5651313,111.27085 C68.5336227,111.803404 68.5202921,112.059042 68.5154446,112.176678 C69.3604222,112.217714 70.0823947,112.238992 70.6619724,112.238992 C70.7637696,112.238992 70.911315,112.229873 71.1012759,112.212547 C71.3015377,112.194613 71.4502949,112.185797 71.5557278,112.185797 C71.7078177,112.185797 71.7984051,112.276988 71.7984051,112.429581 C71.7984051,112.625337 71.6902455,112.874592 71.4672611,113.19072 C71.2588192,113.524782 71.0634049,113.688621 70.8722321,113.688621 C70.7307461,113.688621 70.4514097,113.62266 70.0187715,113.487089 C69.7042908,113.387388 69.191669,113.270055 68.4945398,113.138133 C68.4409145,114.153998 68.3485093,114.907841 68.2206568,115.379601 C68.0067614,116.156243 67.6010874,116.835006 67.0142385,117.397045 C66.2210685,118.139337 65.5203037,118.515043 64.931031,118.515043" id="Fill-11"></path>
            <path d="M81.6881872,114.988089 C81.4909551,114.988089 81.2425214,114.909361 80.9516722,114.753729 C80.0751859,114.305982 78.836653,114.078309 77.2724296,114.078309 C75.9384618,114.078309 74.7668849,114.249444 73.7910252,114.587762 C73.2844628,114.75768 73.149945,114.777134 73.0926841,114.777134 C72.9657405,114.777134 72.8400088,114.7209 72.7194276,114.609951 C72.6042998,114.494443 72.5473418,114.376199 72.5473418,114.256739 C72.5473418,114.029978 72.6367173,113.835438 72.8124387,113.678286 C73.0511775,113.487089 73.7586076,113.351519 74.9786594,113.261544 C75.8475715,113.199839 76.6277139,113.169138 77.2984849,113.169138 C78.2543487,113.169138 79.3201899,113.262456 80.4666205,113.446965 C81.2297967,113.577368 81.7996794,113.643634 82.1614231,113.643634 C82.2244404,113.643634 82.3280555,113.626611 82.4707534,113.593175 C82.6304175,113.539068 82.7513017,113.512015 82.8318911,113.512015 C82.908845,113.512015 83.0875961,113.540588 83.0875961,113.808081 C83.0875961,113.910214 83.0288203,114.095332 82.5180163,114.519977 C82.1347619,114.839448 81.8711798,114.988089 81.6881872,114.988089" id="Fill-13"></path>
            <path d="M92.6353274,110.953507 C92.4341567,110.886329 92.1766339,110.662304 91.8476108,110.268056 C91.5161638,109.870768 91.3546819,109.581086 91.3546819,109.38229 C91.3546819,109.282284 91.4243646,109.217539 91.5319182,109.217539 C91.5667595,109.217539 91.5840287,109.217539 92.0390865,109.52242 C92.3914382,109.746749 92.5123224,109.814534 92.5517082,109.831252 C92.8137755,109.936122 93.0822051,110.051022 93.3545732,110.174434 L93.4284974,110.208478 L93.3988066,110.284166 C93.3591178,110.383564 93.2588354,110.513967 93.0906882,110.682366 C92.9182994,110.845901 92.7840846,110.934964 92.6792577,110.956546 L92.6571411,110.960802 L92.6353274,110.953507 Z M90.9538554,111.419491 C90.7599559,111.419491 90.532427,111.19273 90.2367303,110.706076 C89.9716333,110.265928 89.8431749,109.954056 89.8431749,109.751613 C89.8431749,109.543394 89.9579998,109.5209 90.0073836,109.5209 C90.1197847,109.5209 90.2252175,109.575006 90.3203494,109.681092 C90.7123899,110.13431 91.0759514,110.418825 91.401339,110.52795 C91.5673654,110.590263 91.6682537,110.664128 91.713093,110.755623 L91.7258177,110.780852 L91.7206672,110.808209 C91.6994594,110.925541 91.6006919,111.062024 91.4173963,111.226167 C91.2165286,111.359001 91.0683772,111.419491 90.9538554,111.419491 L90.9538554,111.419491 Z M88.2065422,117.933854 C86.951649,117.933854 85.9888169,117.83932 85.3444042,117.653291 C84.8675326,117.525016 84.5227551,117.252963 84.3188577,116.845037 C84.1446512,116.476626 84.0601231,115.869296 84.0601231,114.986873 L84.0601231,111.188779 C84.0601231,110.638898 84.3709682,110.52339 84.6315206,110.52339 C84.9575141,110.52339 85.1371741,110.69878 85.1371741,111.017644 C85.1371741,111.311278 85.1105129,111.761761 85.0577965,112.356932 C85.0274997,112.885838 85.0105335,113.28495 85.0068979,113.568857 C86.2487634,113.226892 87.3518697,112.821701 88.2874346,112.364835 C89.3293413,111.848696 89.6029214,111.789118 89.7183522,111.789118 C90.0616148,111.789118 90.2503638,111.987914 90.2503638,112.349333 C90.2503638,112.600107 89.9713304,112.97247 87.7972325,113.631475 C86.9507401,113.897448 86.0121455,114.141535 85.005989,114.357049 L85.005989,115.408782 C85.005989,116.012161 85.0714301,116.407625 85.2004944,116.584839 C85.3568258,116.797617 85.7273556,116.905526 86.3008739,116.905526 C87.4757835,116.905526 88.5904026,116.835006 89.6147371,116.695484 C90.4606236,116.557178 91.0959473,116.403673 91.5001065,116.23953 C91.8385217,116.093625 91.9409249,116.075083 91.9921265,116.075083 C92.053023,116.075083 92.1954179,116.101528 92.1954179,116.344703 C92.1954179,116.562649 92.1105869,116.834702 91.9360774,117.175451 C91.7955003,117.478204 91.5140431,117.676088 91.1017037,117.760896 C90.4763779,117.875796 89.502942,117.933854 88.2065422,117.933854 L88.2065422,117.933854 Z" id="Fill-15"></path>
            <path d="M102.48845,117.633229 C102.359689,117.633229 102.117618,117.518936 101.384435,116.626483 C100.867875,115.989363 100.133481,115.342821 99.2000365,114.704486 C98.1496467,115.751964 97.1777255,116.51219 96.3109343,116.964497 C95.5644213,117.352057 95.0787637,117.540518 94.8257855,117.540518 C94.6270385,117.540518 94.3976918,117.421666 94.1250207,117.176059 C93.8747692,116.926196 93.7550968,116.712202 93.7550968,116.519486 C93.7550968,116.327073 94.0035305,116.251385 94.1904618,116.211261 C96.4390897,115.812149 98.3799023,114.536391 99.9626067,112.41955 C100.163777,112.155705 100.31617,111.951133 100.4213,111.801884 C100.603081,111.531352 100.695183,111.3742 100.740022,111.283313 C100.630651,111.274194 100.384338,111.263859 99.8335424,111.263859 C98.5141171,111.263859 97.4588798,111.347451 96.6972184,111.51281 C96.29518,111.602481 96.0182673,111.646252 95.8513319,111.646252 C95.7065133,111.646252 95.463533,111.580595 95.463533,111.138928 C95.463533,110.92159 95.5847202,110.745592 95.8234589,110.615493 C96.048867,110.493297 96.7890177,110.433415 98.0857204,110.433415 L99.9256447,110.433415 C100.282541,110.433415 100.572178,110.450742 100.786074,110.484178 C100.893627,110.450134 101.055715,110.433415 101.279608,110.433415 C101.753753,110.433415 101.824648,110.693613 101.824648,110.848941 C101.824648,111.013085 101.731939,111.366297 100.928771,112.532626 C100.494315,113.174609 100.102881,113.701388 99.7650716,114.100195 L101.903419,115.471096 C102.461486,115.833427 102.903213,116.051069 103.216179,116.119158 C103.328883,116.144996 103.449162,116.166881 103.577923,116.1836 C103.793636,116.261416 103.90119,116.350783 103.925124,116.461428 L103.930578,116.484225 L103.923004,116.506415 C103.86544,116.681197 103.667905,116.909478 103.318582,117.204328 C102.965928,117.493403 102.694469,117.633229 102.48845,117.633229" id="Fill-17"></path>
            <path d="M20.5141148,92.2621395 C19.6991311,92.2621395 19.0607777,91.6219805 19.0607777,90.8039995 L19.0607777,84.3616773 C19.0607777,80.1447133 16.1341075,78.6485771 13.6279568,78.6485771 C11.122109,78.6485771 8.19574179,80.1447133 8.19574179,84.3616773 L8.19574179,90.8039995 C8.19574179,91.6219805 7.55708539,92.2621395 6.74240463,92.2621395 C5.9274209,92.2621395 5.28846154,91.6219805 5.28846154,90.8039995 L5.28846154,69.6693284 C5.28846154,68.8513474 5.9274209,68.2108844 6.74240463,68.2108844 C7.55708539,68.2108844 8.19574179,68.8513474 8.19574179,69.6693284 L8.19574179,76.7238444 C8.19574179,76.9527332 8.36903944,77.1895252 8.65958569,77.1895252 C8.68139938,77.1877013 8.77441053,77.1585203 8.90256596,77.0813121 C9.64483739,76.6341735 10.4867853,76.2721463 11.4050811,76.0046534 C11.632307,75.9535866 11.8113611,75.8323029 11.9686014,75.6295555 L16.8727433,68.7869059 C17.1638955,68.3850587 17.5677517,68.1817033 18.0734052,68.1817033 C18.3969749,68.1817033 18.6496502,68.2598234 18.8941453,68.4346057 C19.3116351,68.7139533 19.5270453,69.111241 19.5270453,69.6109663 C19.5270453,69.9146315 19.4322163,70.2015784 19.2455881,70.4635998 L15.7287364,75.3331856 C15.6690517,75.4356232 15.6339074,75.5344131 15.6339074,75.6158769 C15.6339074,75.8657395 15.7154058,75.9703049 15.9580831,76.0310987 C19.7233685,77.0810082 21.9677549,80.1945642 21.9677549,84.3616773 L21.9677549,90.8039995 C21.9677549,91.6219805 21.3290985,92.2621395 20.5141148,92.2621395" id="Fill-19"></path>
            <path d="M33.9262021,92.8162752 C29.9097562,92.8162752 25.5873128,90.1155093 25.5873128,84.1862871 L25.5873128,69.6398434 C25.5873128,68.8221663 26.2253632,68.1817033 27.040347,68.1817033 C27.8556337,68.1817033 28.4936841,68.8221663 28.4936841,69.6398434 L28.4936841,84.128229 C28.4936841,88.3880527 31.4203543,89.8990833 33.9262021,89.8990833 C36.4320498,89.8990833 39.359023,88.4029471 39.359023,84.1862871 L39.359023,69.6398434 C39.359023,68.8221663 39.9973764,68.1817033 40.8123601,68.1817033 C41.6276468,68.1817033 42.2660003,68.8221663 42.2660003,69.6398434 L42.2660003,84.1862871 C42.2660003,90.1155093 37.9432538,92.8162752 33.9262021,92.8162752" id="Fill-21"></path>
            <path d="M54.5289302,71.0982873 C52.0230824,71.0982873 49.0961092,72.6020227 49.0961092,76.8402646 L49.0961092,78.531245 C49.0961092,78.836734 49.3151551,78.9969257 49.5314742,78.9969257 L59.4969983,78.9969257 C59.8441995,78.9969257 59.9614481,78.8792897 59.9614481,78.531245 L59.9614481,76.8691417 C59.9614481,72.609622 57.0347779,71.0982873 54.5289302,71.0982873 M61.4147852,92.2621395 C60.5998015,92.2621395 59.9614481,91.6216765 59.9614481,90.8039995 L59.9614481,82.3497055 C59.9614481,82.1326715 59.801784,81.9135097 59.4969983,81.9135097 L49.5314742,81.9135097 C49.2994007,81.9135097 49.0961092,82.1171691 49.0961092,82.3497055 L49.0961092,90.8039995 C49.0961092,91.6216765 48.4577558,92.2621395 47.6427721,92.2621395 C46.8274854,92.2621395 46.189132,91.6216765 46.189132,90.8039995 L46.189132,76.8402646 C46.189132,70.8909804 50.5118784,68.1817033 54.5289302,68.1817033 C58.545376,68.1817033 62.8678194,70.8909804 62.8678194,76.8402646 L62.8678194,90.8039995 C62.8678194,91.6216765 62.229769,92.2621395 61.4147852,92.2621395" id="Fill-23"></path>
            <path d="M82.3195724,92.2621395 C81.5045886,92.2621395 80.8659322,91.6219805 80.8659322,90.8039995 L80.8659322,84.3616773 C80.8659322,80.1447133 77.939565,78.6485771 75.4334143,78.6485771 C72.9275666,78.6485771 70.0011993,80.1447133 70.0011993,84.3616773 L70.0011993,90.8039995 C70.0011993,91.6219805 69.3625429,92.2621395 68.5475592,92.2621395 C67.7328784,92.2621395 67.0939191,91.6219805 67.0939191,90.8039995 L67.0939191,69.6693284 C67.0939191,68.8513474 67.7328784,68.2108844 68.5475592,68.2108844 C69.3625429,68.2108844 70.0011993,68.8513474 70.0011993,69.6693284 L70.0011993,76.7238444 C70.0011993,76.9527332 70.174497,77.1895252 70.4650432,77.1895252 C70.4868569,77.1877013 70.5798681,77.1585203 70.7080235,77.0813121 C71.4502949,76.6341735 72.2922428,76.2721463 73.2105386,76.0046534 C73.4377645,75.9535866 73.6168186,75.8323029 73.7740589,75.6295555 L78.6782008,68.7869059 C78.969353,68.3850587 79.3732092,68.1817033 79.8788627,68.1817033 C80.2024325,68.1817033 80.4551077,68.2598234 80.6996028,68.4346057 C81.1170926,68.7139533 81.3325028,69.111241 81.3325028,69.6109663 C81.3325028,69.9146315 81.2376739,70.2015784 81.0510456,70.4635998 L77.5341939,75.3331856 C77.4745092,75.4356232 77.439365,75.5344131 77.439365,75.6158769 C77.439365,75.8657395 77.5208633,75.9703049 77.7635406,76.0310987 C81.5288261,77.0810082 83.7732125,80.1945642 83.7732125,84.3616773 L83.7732125,90.8039995 C83.7732125,91.6219805 83.1342531,92.2621395 82.3195724,92.2621395" id="Fill-25"></path>
            <path d="M95.7316596,71.0982873 C93.2258119,71.0982873 90.2991417,72.6020227 90.2991417,76.8402646 L90.2991417,78.531245 C90.2991417,78.836734 90.5181875,78.9969257 90.7342036,78.9969257 L100.700334,78.9969257 C101.047232,78.9969257 101.164481,78.8792897 101.164481,78.531245 L101.164481,76.8691417 C101.164481,72.609622 98.2375074,71.0982873 95.7316596,71.0982873 M102.617818,92.2621395 C101.802834,92.2621395 101.164481,91.6216765 101.164481,90.8039995 L101.164481,82.3497055 C101.164481,82.1326715 101.004816,81.9135097 100.700334,81.9135097 L90.7342036,81.9135097 C90.5024332,81.9135097 90.2991417,82.1171691 90.2991417,82.3497055 L90.2991417,90.8039995 C90.2991417,91.6216765 89.6610912,92.2621395 88.8458045,92.2621395 C88.0308208,92.2621395 87.3927703,91.6216765 87.3927703,90.8039995 L87.3927703,76.8402646 C87.3927703,70.8909804 91.7152138,68.1817033 95.7316596,68.1817033 C99.7487114,68.1817033 104.071458,70.8909804 104.071458,76.8402646 L104.071458,90.8039995 C104.071458,91.6216765 103.433104,92.2621395 102.617818,92.2621395" id="Fill-27"></path>
            <path d="M8.38873236,105.386312 C7.89853025,105.386312 7.51406395,105.001183 7.51406395,104.509361 L7.51406395,97.597406 L6.16252401,97.597406 C5.6723219,97.597406 5.28846154,97.2119731 5.28846154,96.7201511 C5.28846154,96.228329 5.6723219,95.8428961 6.16252401,95.8428961 L10.6146377,95.8428961 C11.1048398,95.8428961 11.4883972,96.228329 11.4883972,96.7201511 C11.4883972,97.2119731 11.1048398,97.597406 10.6146377,97.597406 L9.26279483,97.597406 L9.26279483,104.509361 C9.26279483,105.001183 8.87893447,105.386312 8.38873236,105.386312" id="Fill-29"></path>
            <path d="M14.9140556,99.3996391 C14.9140556,100.736799 15.7917537,101.213423 16.6130998,101.213423 C17.4344458,101.213423 18.3121439,100.736799 18.3121439,99.3996391 C18.3121439,98.070686 17.4344458,97.5971021 16.6130998,97.5971021 L14.9140556,97.5971021 L14.9140556,99.3996391 Z M19.1977192,105.495133 C18.6590422,105.495133 18.008873,105.149824 17.6153177,104.853454 C16.9663604,104.38139 16.4925185,103.71053 16.2865003,102.968541 L16.2795321,102.947871 C16.2734727,102.947871 16.2622629,102.945743 16.2468115,102.944223 C15.789027,102.901668 15.3942598,102.782512 14.9152675,102.539944 L14.9140556,104.509361 C14.9140556,105.001183 14.5298923,105.386008 14.0396902,105.386008 C13.5494881,105.386008 13.1656277,105.001183 13.1656277,104.509361 L13.1656277,96.7201511 C13.1656277,96.228025 13.5494881,95.8428961 14.0396902,95.8428961 L16.6130998,95.8428961 C18.6108703,95.8428961 20.0605718,97.3387283 20.0605718,99.3996391 C20.0605718,100.934683 19.3058787,102.139313 18.0267481,102.674907 C18.3006311,103.378899 19.0265423,103.664022 19.3679871,103.7619 C19.8027461,103.843972 20.0605718,104.256762 20.0605718,104.618182 C20.0605718,105.093285 19.6655016,105.495133 19.1977192,105.495133 L19.1977192,105.495133 Z" id="Fill-31"></path>
            <path d="M27.7041497,99.5808047 L27.7044527,99.1178597 C27.7044527,97.7727962 26.8267546,97.2934369 26.0054085,97.2934369 C25.1837595,97.2934369 24.3060614,97.7697565 24.3060614,99.1066129 L24.3060614,99.5808047 L27.7041497,99.5808047 Z M28.5788181,105.202106 C28.088616,105.202106 27.7044527,104.817281 27.7044527,104.325155 L27.7044527,101.335011 L24.3060614,101.335011 L24.3060614,104.325155 C24.3060614,104.817281 23.9222011,105.202106 23.431696,105.202106 C22.9414939,105.202106 22.5576335,104.817281 22.5576335,104.325155 L22.5576335,99.1066129 C22.5576335,96.7645305 24.2918219,95.5389269 26.0054085,95.5389269 C27.7183892,95.5389269 29.4525776,96.7645305 29.4525776,99.1066129 L29.4525776,104.325155 C29.4525776,104.817281 29.0690202,105.202106 28.5788181,105.202106 L28.5788181,105.202106 Z" id="Fill-33"></path>
            <path d="M37.970521,105.202106 C37.4803188,105.202106 37.0961555,104.816977 37.0961555,104.325155 L37.0961555,99.1175557 C37.0961555,97.7727962 36.2187604,97.2931329 35.3974143,97.2931329 C34.5757653,97.2931329 33.6980672,97.7670208 33.6980672,99.0962779 L33.6980672,104.325155 C33.6980672,104.816977 33.3142069,105.202106 32.8240047,105.202106 C32.3338026,105.202106 31.9496393,104.816977 31.9496393,104.325155 L31.9496393,99.1066129 C31.9496393,96.7645305 33.6841307,95.5389269 35.3974143,95.5389269 C37.0576786,95.5389269 38.8448864,96.652062 38.8448864,99.0962779 L38.8448864,104.325155 C38.8448864,104.816977 38.4607231,105.202106 37.970521,105.202106" id="Fill-35"></path>
            <path d="M44.0638119,105.409413 C42.6447102,105.409413 41.333465,104.540973 40.8005444,103.248193 C40.7560081,103.13542 40.7357092,103.026295 40.7357092,102.908963 C40.7357092,102.416837 41.1192666,102.032012 41.6094688,102.032012 C41.9548522,102.032012 42.2620617,102.231416 42.4114249,102.553015 C42.6971236,103.227827 43.3436572,103.655207 44.0638119,103.655207 C45.0605764,103.655207 45.8713186,102.846345 45.8713186,101.852366 C45.8713186,100.834981 45.0775426,100.038582 44.0638119,100.038582 C42.8273998,100.038582 41.8215463,99.0294047 41.8215463,97.7889066 C41.8215463,96.5484085 42.8273998,95.5389269 44.0638119,95.5389269 C44.8909144,95.5389269 45.6280354,95.9757306 46.0349213,96.7076883 L46.0506756,96.7362614 L46.0618854,96.7663544 C46.1182375,96.917427 46.1430808,97.0311115 46.1430808,97.1350689 C46.1430808,97.626891 45.7595234,98.0123239 45.2690184,98.0123239 C44.9536288,98.0123239 44.6688389,97.8472687 44.50766,97.5703528 C44.4473693,97.4618358 44.3161842,97.2934369 44.0638119,97.2934369 C43.7914438,97.2934369 43.5699742,97.5153344 43.5699742,97.7889066 C43.5699742,98.0618709 43.7914438,98.2843763 44.0638119,98.2843763 C46.0246204,98.2843763 47.6197465,99.8847739 47.6197465,101.852366 C47.6197465,103.813879 46.0246204,105.409413 44.0638119,105.409413" id="Fill-37"></path>
            <path d="M53.2725222,105.409413 C51.5592385,105.409413 49.8247471,104.18381 49.8247471,101.841727 L49.8247471,96.4161819 C49.8247471,95.9243598 50.2092134,95.5389269 50.6994155,95.5389269 C51.1896176,95.5389269 51.573478,95.9243598 51.573478,96.4161819 L51.573478,101.841727 C51.573478,103.180103 52.4884412,103.655207 53.2725222,103.655207 C53.7627243,103.655207 54.1468876,104.040336 54.1468876,104.532158 C54.1468876,105.02398 53.7627243,105.409413 53.2725222,105.409413" id="Fill-39"></path>
            <path d="M61.0306219,99.5808047 L61.0309249,99.1178597 C61.0309249,97.7727962 60.1532268,97.2934369 59.3318807,97.2934369 C58.5102317,97.2934369 57.6325336,97.7697565 57.6325336,99.1066129 L57.6325336,99.5808047 L61.0306219,99.5808047 Z M61.9049874,105.202106 C61.4147852,105.202106 61.0309249,104.817281 61.0309249,104.325155 L61.0309249,101.335011 L57.6325336,101.335011 L57.6325336,104.325155 C57.6325336,104.817281 57.2489762,105.202106 56.7584711,105.202106 C56.268269,105.202106 55.8841057,104.817281 55.8841057,104.325155 L55.8841057,99.1066129 C55.8841057,96.7645305 57.6182941,95.5389269 59.3318807,95.5389269 C61.0451644,95.5389269 62.7793528,96.7645305 62.7793528,99.1066129 L62.7793528,104.325155 C62.7793528,104.817281 62.3951895,105.202106 61.9049874,105.202106 L61.9049874,105.202106 Z" id="Fill-41"></path>
            <path d="M67.4671756,105.386312 C66.9769735,105.386312 66.5928101,105.001183 66.5928101,104.509361 L66.5928101,97.597406 L65.2409672,97.597406 C64.7507651,97.597406 64.3672077,97.2119731 64.3672077,96.7201511 C64.3672077,96.228329 64.7507651,95.8428961 65.2409672,95.8428961 L69.6930809,95.8428961 C70.1832831,95.8428961 70.5668404,96.228329 70.5668404,96.7201511 C70.5668404,97.2119731 70.1832831,97.597406 69.6930809,97.597406 L68.341238,97.597406 L68.341238,104.509361 C68.341238,105.001183 67.9573777,105.386312 67.4671756,105.386312" id="Fill-43"></path>
            <path d="M73.1184363,105.202106 C72.6282342,105.202106 72.2443739,104.816977 72.2443739,104.325155 L72.2443739,96.4161819 C72.2443739,95.9243598 72.6282342,95.5389269 73.1184363,95.5389269 C73.6086385,95.5389269 73.9931048,95.9243598 73.9931048,96.4161819 L73.9931048,104.325155 C73.9931048,104.816977 73.6086385,105.202106 73.1184363,105.202106" id="Fill-45"></path>
            <path d="M81.2585787,97.2931329 C79.8637143,97.2931329 78.2346558,98.1275282 78.2346558,100.479338 C78.2346558,102.672779 79.753131,103.654599 81.2585787,103.654599 C82.7579669,103.654599 84.2709888,102.672779 84.2709888,100.479338 C84.2709888,98.1275282 82.6482926,97.2931329 81.2585787,97.2931329 M81.2585787,105.408805 C78.959961,105.408805 76.4859249,103.866466 76.4859249,100.479338 C76.4859249,97.0846101 78.959961,95.5389269 81.2585787,95.5389269 C83.5517429,95.5389269 86.0197197,97.0846101 86.0197197,100.479338 C86.0197197,103.866466 83.5517429,105.408805 81.2585787,105.408805" id="Fill-47"></path>
            <path d="M94.3225558,105.202106 C93.8323537,105.202106 93.4484933,104.816977 93.4484933,104.325155 L93.4484933,99.1175557 C93.4484933,97.7727962 92.5707952,97.2931329 91.7494491,97.2931329 C90.9278001,97.2931329 90.050102,97.7670208 90.050102,99.0962779 L90.050102,104.325155 C90.050102,104.816977 89.6662417,105.202106 89.1760396,105.202106 C88.6858375,105.202106 88.3016741,104.816977 88.3016741,104.325155 L88.3016741,99.1066129 C88.3016741,96.7645305 90.0361655,95.5389269 91.7494491,95.5389269 C93.4097134,95.5389269 95.1969212,96.652062 95.1969212,99.0962779 L95.1969212,104.325155 C95.1969212,104.816977 94.8127579,105.202106 94.3225558,105.202106" id="Fill-49"></path>
            <path d="M100.415847,105.409413 C98.996745,105.409413 97.6854998,104.540973 97.1525792,103.248193 C97.1080429,103.13542 97.0877441,103.026295 97.0877441,102.908963 C97.0877441,102.416837 97.4713015,102.032012 97.9615036,102.032012 C98.306887,102.032012 98.6140965,102.231416 98.7634597,102.553015 C99.0491584,103.227827 99.695692,103.655207 100.415847,103.655207 C101.412611,103.655207 102.223353,102.846345 102.223353,101.852366 C102.223353,100.834981 101.429577,100.038582 100.415847,100.038582 C99.1794346,100.038582 98.1735811,99.0294047 98.1735811,97.7889066 C98.1735811,96.5484085 99.1794346,95.5389269 100.415847,95.5389269 C101.242949,95.5389269 101.98007,95.9757306 102.386956,96.7076883 L102.40271,96.7362614 L102.41392,96.7663544 C102.470272,96.917427 102.495116,97.0311115 102.495116,97.1350689 C102.495116,97.626891 102.111558,98.0123239 101.621053,98.0123239 C101.305664,98.0123239 101.020874,97.8472687 100.859695,97.5703528 C100.799404,97.4618358 100.668219,97.2934369 100.415847,97.2934369 C100.143479,97.2934369 99.922009,97.5153344 99.922009,97.7889066 C99.922009,98.0618709 100.143479,98.2843763 100.415847,98.2843763 C102.376655,98.2843763 103.971781,99.8847739 103.971781,101.852366 C103.971781,103.813879 102.376655,105.409413 100.415847,105.409413" id="Fill-51"></path>
            <path d="M102.796009,39.0117949 C103.043309,39.0255928 103.077981,38.6608333 102.832449,38.6275769 C94.1875441,37.4565256 77.2823052,35.0482641 75.4079156,33.8849963 C72.8768883,32.3138064 70.869473,29.3465536 65.0216465,32.0520004 C59.1741737,34.7578009 60.3958172,29.4339402 64.585421,28.0371698 C68.7746711,26.6407531 68.4265398,22.0145701 67.4221246,20.2696684 C67.4221246,20.2696684 56.9484688,-1.72415961 25.0049509,0.108482496 C25.0049509,0.108482496 50.1952888,3.66798292 54.3201487,17.6487779 C50.1935199,13.6300556 43.2931624,9.46132547 32.2796202,9.10647218 C32.2796202,9.10647218 54.5483445,14.3149967 50.7765689,27.5291246 C47.0047934,40.7436063 38.0188326,43.5031832 12.3607818,41.2891534 C12.3607818,41.2891534 22.0854601,46.9561923 36.3209852,46.2213664 C28.0100594,48.9282284 16.3324498,49.9312284 0,49.9874813 C0.0314874801,49.9874813 0.0866790183,50.027106 0.114982371,50.0394888 C0.227841991,50.090081 0.341762987,50.1392581 0.455683982,50.1877276 C0.642132319,50.2666232 0.828934449,50.343396 1.01644416,50.4187537 C1.2729433,50.5213533 1.53050381,50.6211227 1.7891257,50.7187692 C2.11355288,50.8408274 2.43939523,50.9593477 2.76629896,51.0743301 C3.15617764,51.2112476 3.54817908,51.3439195 3.9408881,51.4719922 C4.39374175,51.6195234 4.84871815,51.7617478 5.30510971,51.8983115 C5.81952315,52.0518572 6.33535176,52.1990346 6.85259553,52.33949 C7.42503085,52.4951584 7.99923512,52.6426896 8.57520835,52.7827912 C9.20318899,52.9352756 9.83329239,53.0789151 10.4655185,53.2137098 C11.1472755,53.3591183 11.8311553,53.4942668 12.516804,53.6195091 C13.2498609,53.7532425 13.9846867,53.8753007 14.7212814,53.9860375 C15.5028078,54.1038502 16.2868106,54.2085726 17.0715211,54.3002047 C17.899748,54.3974975 18.7297438,54.4802848 19.5604472,54.5489205 C20.4328981,54.6207402 21.3067641,54.6769931 22.1813377,54.7176792 C23.095536,54.7597804 24.0104419,54.7852535 24.9253477,54.7933907 C25.8791707,54.8018817 26.8329937,54.7916217 27.7861091,54.7626108 C28.7774341,54.7325385 29.7676976,54.6823 30.7568998,54.6118954 C31.7825426,54.5390143 32.807124,54.4441981 33.828875,54.3278005 C34.8877742,54.2071575 35.9434892,54.0631642 36.9960202,53.8965282 C38.0849917,53.7238777 39.1700715,53.5264618 40.2501982,53.3046343 C41.367473,53.0753772 42.479441,52.8199394 43.584687,52.5390286 C47.9876273,51.4192772 52.4047193,49.8502101 56.5122434,47.7918487 C60.7708366,45.6581297 64.3770376,42.8879391 68.1052968,39.9762316 C68.7619345,39.4632334 69.4302475,38.9650943 70.1187265,38.4959663 C70.7516603,38.0643401 71.4022836,37.6532339 72.0879323,37.309702 C72.0897013,37.3093482 72.0911164,37.3089944 72.0928854,37.3086406 C81.3661252,37.8152706 95.353996,38.5957356 102.796009,39.0117949" id="Fill-53-Copy-4"></path>
        </g>
    </g>
</svg>