<?xml version="1.0" encoding="UTF-8"?>
<svg width="38px" height="41px" viewBox="0 0 38 41" version="1.1" xmlns="http://www.w3.org/2000/svg" xmlns:xlink="http://www.w3.org/1999/xlink">
    <!-- Generator: Sketch 43.2 (39069) - http://www.bohemiancoding.com/sketch -->
    <title>medical</title>
    <desc>Created with Sketch.</desc>
    <defs></defs>
    <g id="Page-1" stroke="none" stroke-width="1" fill="none" fill-rule="evenodd">
        <g id="Group-12" transform="translate(-662.000000, -52.000000)" fill="#143953">
            <g id="medical" transform="translate(680.908192, 72.367925) rotate(-180.000000) translate(-680.908192, -72.367925) translate(661.908192, 51.867925)">
                <path d="M37.2389748,5.32498881 C37.239085,2.18213837 34.7648447,0.0266343237 31.6957686,0 L4.64302739,0 C2.07875417,4.30899356e-16 1.00974196e-28,2.12864673 1.00974196e-28,4.75446554 L1.00974196e-28,24.1604474 L6.49076278,24.1604474 L6.49076278,40.3644422 L37.2389748,40.3644422 L37.2389748,5.32498881 Z M6.49076278,21.8200733 L2.28802675,21.8200733 L2.28802675,4.75446554 C2.28802675,3.20040951 3.1253963,1.94059818 4.64302739,1.94059818 C6.16065848,1.94059818 6.53814061,3.20040951 6.53814061,4.75446554 L6.49076278,21.8200733 Z M34.9509481,37.9755532 L8.84427512,37.9755532 L8.84427512,4.75446554 C8.84770491,3.74175993 8.67722408,3.07220267 8.38970142,2.40700331 L31.3028551,2.40700331 C33.3252811,2.43355634 34.9511143,3.65362781 34.9509481,5.72476463 L34.9509481,37.9755532 Z" id="Shape" fill-rule="nonzero" transform="translate(18.619487, 20.182221) scale(-1, 1) rotate(-180.000000) translate(-18.619487, -20.182221) "></path>
                <g id="Group-3" transform="translate(13.041455, 22.536200)">
                    <g id="Group-4" transform="translate(0.000000, -0.000000)">
                        <polygon id="Path" points="0.576004989 7.13977575 4.60270737 7.13977575 4.60270737 11.2681 7.51849476 11.2681 7.51849476 7.13977575 11.5461691 7.13977575 11.5461691 4.15400602 7.51849476 4.15400602 7.51849476 0.034639037 4.60270737 0.034639037 4.60270737 4.15400602 0.576004989 4.15400602"></polygon>
                    </g>
                </g>
                <rect id="Rectangle-path" fill-rule="nonzero" transform="translate(22.238805, 9.993621) rotate(-180.000000) translate(-22.238805, -9.993621) " x="14.2602295" y="8.78996299" width="15.9571507" height="2.40731684" rx="1.20365842"></rect>
                <rect id="Rectangle-path" fill-rule="nonzero" transform="translate(22.238805, 17.078021) rotate(-180.000000) translate(-22.238805, -17.078021) " x="14.2602295" y="15.8743625" width="15.9571507" height="2.40731684" rx="1.20365842"></rect>
            </g>
        </g>
    </g>
</svg>